<svg xmlns="http://www.w3.org/2000/svg">
  <symbol id="search" viewBox="0 0 16 16" fill="none">
    <path stroke="#1C1C1C" stroke-linecap="round" stroke-linejoin="round" stroke-width="1.5"
      d="M7.666 14a6.333 6.333 0 1 0 0-12.667 6.333 6.333 0 0 0 0 12.667ZM14.666 14.667l-1.333-1.334" />
  </symbol>
  <symbol id="favorites" viewBox="0 0 16 16">
    <path stroke="currentColor" stroke-linecap="round" stroke-linejoin="round"
      d="M8.414 13.873c-.227.08-.6.08-.827 0-1.933-.66-6.253-3.413-6.253-8.08 0-2.06 1.66-3.726 3.706-3.726 1.213 0 2.287.586 2.96 1.493a3.687 3.687 0 0 1 2.96-1.493c2.047 0 3.707 1.666 3.707 3.726 0 4.667-4.32 7.42-6.253 8.08Z" />
  </symbol>
  <symbol id="cart" viewBox="0 0 16 16" fill="none">
    <path stroke="currentColor" stroke-linecap="round" stroke-linejoin="round"
      stroke-miterlimit="10" d="M5.873 1.333 3.46 3.753M10.127 1.333l2.413 2.42" />
    <path stroke="currentColor"
      d="M1.333 5.233c0-1.233.66-1.333 1.48-1.333h10.374c.82 0 1.48.1 1.48 1.333 0 1.434-.66 1.334-1.48 1.334H2.814c-.82 0-1.48.1-1.48-1.334Z" />
    <path stroke="currentColor" stroke-linecap="round"
      d="M6.507 9.333V11.7M9.573 9.333V11.7M2.333 6.667l.94 5.76c.214 1.293.727 2.24 2.634 2.24h4.02c2.073 0 2.38-.907 2.62-2.16l1.12-5.84" />
  </symbol>
  <symbol id="phone" viewBox="0 0 16 16" fill="none">
    <path fill="#fff"
      d="m4.486 1.545 1.107-.334a1.571 1.571 0 0 1 1.886.86l.776 1.726a1.571 1.571 0 0 1-.362 1.794L6.712 6.692c-.158.15-.038.736.54 1.738.579 1.003 1.026 1.4 1.233 1.338l1.547-.473a1.571 1.571 0 0 1 1.734.583l1.102 1.528a1.571 1.571 0 0 1-.193 2.06l-.853.808a2.142 2.142 0 0 1-2.1.493c-1.787-.546-3.44-2.17-4.985-4.845-1.548-2.68-2.133-4.94-1.726-6.788a2.143 2.143 0 0 1 1.475-1.59Z" />
  </symbol>
  <symbol id="vk" viewBox="0 0 24 24" fill="none">
    <path fill="#fff"
      d="M12 .48C5.639.48.48 5.638.48 12c0 6.362 5.158 11.52 11.52 11.52 6.363 0 11.52-5.158 11.52-11.52C23.52 5.638 18.363.48 12 .48Zm4.43 12.997s1.02 1.006 1.27 1.473c.008.01.011.019.014.024.102.171.126.304.075.404-.084.166-.372.247-.47.254h-1.8c-.125 0-.386-.032-.703-.25-.244-.17-.484-.45-.718-.723-.35-.405-.652-.756-.956-.756a.365.365 0 0 0-.114.018c-.23.075-.526.403-.526 1.28 0 .273-.216.43-.368.43h-.825c-.28 0-1.743-.098-3.04-1.465-1.586-1.674-3.014-5.032-3.026-5.063-.09-.217.096-.333.3-.333H7.36c.242 0 .322.147.377.278.065.152.302.758.692 1.44.633 1.111 1.02 1.562 1.331 1.562a.36.36 0 0 0 .167-.043c.405-.225.33-1.671.312-1.971 0-.057-.001-.647-.209-.93-.149-.206-.402-.284-.556-.312a.66.66 0 0 1 .24-.203c.278-.14.78-.16 1.277-.16h.277c.54.007.68.042.875.091.396.095.405.35.37 1.226-.01.248-.022.529-.022.86 0 .072-.003.149-.003.23-.012.446-.027.95.288 1.158a.26.26 0 0 0 .136.04c.11 0 .438 0 1.329-1.528.274-.491.513-1.002.714-1.528.018-.032.07-.128.133-.165a.319.319 0 0 1 .149-.035h2.137c.233 0 .393.035.423.125.052.143-.01.579-.986 1.9l-.435.575c-.885 1.159-.885 1.218.055 2.097Z" />
  </symbol>
  <symbol id="youtube" viewBox="0 0 24 24" fill="none">
    <path fill="#fff"
      d="m10 15 5.19-3L10 9v6Zm11.56-7.83c.13.47.22 1.1.28 1.9.07.8.1 1.49.1 2.09L22 12c0 2.19-.16 3.8-.44 4.83-.25.9-.83 1.48-1.73 1.73-.47.13-1.33.22-2.65.28-1.3.07-2.49.1-3.59.1L12 19c-4.19 0-6.8-.16-7.83-.44-.9-.25-1.48-.83-1.73-1.73-.13-.47-.22-1.1-.28-1.9-.07-.8-.1-1.49-.1-2.09L2 12c0-2.19.16-3.8.44-4.83.25-.9.83-1.48 1.73-1.73.47-.13 1.33-.22 2.65-.28 1.3-.07 2.49-.1 3.59-.1L12 5c4.19 0 6.8.16 7.83.44.9.25 1.48.83 1.73 1.73Z" />
  </symbol>
  <symbol id="telegram" viewBox="0 0 24 24" fill="none">
    <path fill="#fff"
      d="M24 12a12 12 0 1 1-24 0 12 12 0 0 1 24 0ZM12.43 8.859a583.248 583.248 0 0 0-6.998 3.015c-.568.225-.866.447-.893.663-.045.364.413.508 1.035.705l.263.082c.612.2 1.437.433 1.864.441.39.01.824-.15 1.302-.48 3.268-2.206 4.956-3.32 5.061-3.345.075-.018.18-.038.249.024.07.062.063.18.055.212-.045.194-1.84 1.861-2.768 2.726-.29.27-.495.46-.537.504-.093.094-.187.187-.283.278-.57.55-.995.96.023 1.633.49.323.883.589 1.275.856.426.291.852.58 1.404.944.14.09.275.187.405.28.496.354.945.672 1.495.621.322-.03.653-.33.821-1.23.398-2.126 1.179-6.729 1.359-8.627a2.14 2.14 0 0 0-.02-.472.506.506 0 0 0-.17-.325.789.789 0 0 0-.465-.14c-.45.007-1.145.249-4.476 1.635Z" />
  </symbol>
</svg>
